# xmcd
# Track frame offsets:
# 150
# 13314
# 27121
# 40113
# 52237
# 68254
# 81280
# 95774
# 106880
# 121441
# 137481
# 151605
# 165919
# 179790
# 197578
#
# Disc length: 2829 seconds
# Revision: 0
# Processed by: cddbd v1.5.1PL0 Copyright (c) Steve Scherf et al.
# Submitted via: VisiTrax 2.9.10.228 - For more info visit www.synapsa.com
#
DISCID=be0b0b0f
DTITLE=The Pine Tree String Band - Bluegrass Banjo Favorites - Disk 2
DYEAR=1900
DGENRE=
TTITLE0=Buffalo Girls
TTITLE1=Little Darlin' Pal O' Mine
TTITLE2=John Henry
TTITLE3=Reuben's Banjo
TTITLE4=Angeline The Baker
TTITLE5=Goin' Across The Sea
TTITLE6=Shootin Creek
TTITLE7=Cripple Creek
TTITLE8=Jack Wilson
TTITLE9=Ducks on the Millpond
TTITLE10=Sugar Hill
TTITLE11=Cluck Or Hen
TTITLE12=Paddy On The Pike
TTITLE13=Sandy Boys
TTITLE14=June Apple
EXTD=Two Disc Set
EXTT0=
EXTT1=
EXTT2=
EXTT3=
EXTT4=
EXTT5=
EXTT6=
EXTT7=
EXTT8=
EXTT9=
EXTT10=
EXTT11=
EXTT12=
EXTT13=
EXTT14=
PLAYORDER=
